<?xml version="1.0" encoding="UTF-8" standalone="no"?>
<svg
   xmlns:dc="http://purl.org/dc/elements/1.1/"
   xmlns:cc="http://creativecommons.org/ns#"
   xmlns:rdf="http://www.w3.org/1999/02/22-rdf-syntax-ns#"
   xmlns:svg="http://www.w3.org/2000/svg"
   xmlns="http://www.w3.org/2000/svg"
   xmlns:xlink="http://www.w3.org/1999/xlink"
   id="svg8"
   version="1.1"
   viewBox="0 0 170.94484 35.570564"
   height="35.570564mm"
   width="170.94484mm">
  <defs
     id="defs2">
    <linearGradient
       id="linearGradient2403">
      <stop
         style="stop-color:#1e0c08;stop-opacity:1;"
         offset="0"
         id="stop2405" />
      <stop
         style="stop-color:#1e0c08;stop-opacity:0;"
         offset="1"
         id="stop2407" />
    </linearGradient>
    <linearGradient
       id="linearGradient410">
      <stop
         id="stop411"
         offset="0.00000000"
         style="stop-color:#ff0b00;stop-opacity:1.0000000;" />
      <stop
         id="stop412"
         offset="1.0000000"
         style="stop-color:#810500;stop-opacity:1.0000000;" />
    </linearGradient>
    <linearGradient
       id="linearGradient378">
      <stop
         id="stop379"
         offset="0.00000000"
         style="stop-color:#ffffff;stop-opacity:1.0000000;" />
      <stop
         id="stop380"
         offset="1.0000000"
         style="stop-color:#ffffff;stop-opacity:0.00000000;" />
    </linearGradient>
    <linearGradient
       id="linearGradient366">
      <stop
         id="stop367"
         offset="0.00000000"
         style="stop-color:#d9d9b4;stop-opacity:1.0000000;" />
      <stop
         id="stop368"
         offset="1.0000000"
         style="stop-color:#a3a36b;stop-opacity:1.0000000;" />
    </linearGradient>
    <linearGradient
       id="linearGradient362">
      <stop
         id="stop363"
         offset="0.00000000"
         style="stop-color:#b6e8ff;stop-opacity:1.0000000;" />
      <stop
         id="stop364"
         offset="1.0000000"
         style="stop-color:#2389db;stop-opacity:1.0000000;" />
    </linearGradient>
    <linearGradient
       xlink:href="#linearGradient362"
       id="linearGradient1491"
       gradientUnits="userSpaceOnUse"
       gradientTransform="matrix(5.944798,0,0,4.298835,-1448.315,-4215.696)"
       spreadMethod="reflect"
       x1="205.99301"
       y1="1137.6046"
       x2="211.85287"
       y2="1082.9424" />
    <linearGradient
       xlink:href="#linearGradient366"
       id="linearGradient1493"
       gradientUnits="userSpaceOnUse"
       gradientTransform="matrix(7.657335,0,0,3.337415,-1448.315,-4215.696)"
       x1="131.91928"
       y1="1448.4674"
       x2="189.13556"
       y2="1448.4674" />
    <linearGradient
       xlink:href="#linearGradient378"
       id="linearGradient1495"
       gradientUnits="userSpaceOnUse"
       gradientTransform="matrix(8.164449,0,0,3.130118,-1448.315,-4923.433)"
       x1="143.15617"
       y1="1700.754"
       x2="164.79172"
       y2="1776.3087" />
    <linearGradient
       xlink:href="#linearGradient410"
       id="linearGradient1497"
       gradientUnits="userSpaceOnUse"
       gradientTransform="matrix(6.886427,0,0,3.711024,-1448.315,-4923.433)"
       x1="191.07132"
       y1="1478.1887"
       x2="191.07132"
       y2="1444.9415" />
    <linearGradient
       xlink:href="#linearGradient366"
       id="linearGradient1499"
       gradientUnits="userSpaceOnUse"
       gradientTransform="matrix(7.657335,0,0,3.337415,-1448.315,-4923.433)"
       x1="140.25737"
       y1="1696.1609"
       x2="157.33363"
       y2="1634.5474" />
    <linearGradient
       xlink:href="#linearGradient378"
       id="linearGradient1501"
       gradientUnits="userSpaceOnUse"
       gradientTransform="matrix(7.657335,0,0,3.337415,-1448.315,-4923.433)"
       spreadMethod="pad"
       x1="175.50798"
       y1="1674.547"
       x2="167.51932"
       y2="1666.985" />
    <linearGradient
       xlink:href="#linearGradient378"
       id="linearGradient1503"
       gradientUnits="userSpaceOnUse"
       gradientTransform="matrix(7.657335,0,0,3.337415,-1448.315,-4923.433)"
       spreadMethod="pad"
       x1="140.18318"
       y1="1674.4733"
       x2="147.68718"
       y2="1669.3435" />
    <linearGradient
       xlink:href="#linearGradient410"
       id="linearGradient1505"
       gradientUnits="userSpaceOnUse"
       gradientTransform="matrix(4.586545,0,0,5.571887,-1448.315,-4923.433)"
       x1="222.24202"
       y1="1010.1295"
       x2="227.17216"
       y2="985.21222" />
    <linearGradient
       xlink:href="#linearGradient378"
       id="linearGradient1507"
       gradientUnits="userSpaceOnUse"
       gradientTransform="matrix(4.879068,0,0,5.237825,-1448.315,-4923.433)"
       x1="211.96373"
       y1="1048.0908"
       x2="212.00743"
       y2="1068.4087" />
    <linearGradient
       xlink:href="#linearGradient378"
       id="linearGradient1509"
       gradientUnits="userSpaceOnUse"
       gradientTransform="matrix(6.886427,0,0,3.711024,-1448.315,-4923.433)"
       x1="196.64761"
       y1="1437.2679"
       x2="182.96735"
       y2="1493.8745" />
    <linearGradient
       xlink:href="#linearGradient410"
       id="linearGradient2549"
       gradientUnits="userSpaceOnUse"
       x1="135.36044"
       y1="926.09314"
       x2="247.45398"
       y2="926.67377" />
    <radialGradient
       xlink:href="#linearGradient2403"
       id="radialGradient2564"
       gradientUnits="userSpaceOnUse"
       gradientTransform="matrix(1,0,0,0.835443,0,150.8408)"
       cx="-109.28571"
       cy="916.64789"
       fx="-109.28571"
       fy="916.64789"
       r="56.42857" />
    <radialGradient
       xlink:href="#linearGradient2403"
       id="radialGradient2576"
       gradientUnits="userSpaceOnUse"
       gradientTransform="matrix(1,0,0,0.835443,0,150.8408)"
       cx="-109.28571"
       cy="916.64789"
       fx="-109.28571"
       fy="916.64789"
       r="56.42857" />
  </defs>
  <metadata
     id="metadata5">
    <rdf:RDF>
      <cc:Work
         rdf:about="">
        <dc:format>image/svg+xml</dc:format>
        <dc:type
           rdf:resource="http://purl.org/dc/dcmitype/StillImage" />
        <dc:title></dc:title>
      </cc:Work>
    </rdf:RDF>
  </metadata>
  <g
     transform="translate(-8.2518962,-102.44565)"
     id="layer1">
    <g
       id="text4487"
       style="color:#000000;font-style:normal;font-variant:normal;font-weight:bold;font-stretch:normal;font-size:25.39999962px;line-height:0%;font-family:'Broadway BT';-inkscape-font-specification:'Broadway BT Bold';text-align:start;text-anchor:start;clip-rule:nonzero;display:inline;overflow:visible;visibility:visible;opacity:1;isolation:auto;mix-blend-mode:normal;color-interpolation:sRGB;color-interpolation-filters:linearRGB;solid-color:#000000;solid-opacity:1;fill:#000000;fill-opacity:1;fill-rule:nonzero;stroke:none;stroke-width:3.12208343;stroke-linecap:round;stroke-linejoin:miter;stroke-miterlimit:4;stroke-dasharray:none;stroke-dashoffset:0;stroke-opacity:1;color-rendering:auto;image-rendering:auto;shape-rendering:auto;text-rendering:auto;enable-background:accumulate"
       aria-label="intelektron">
      <path
         id="path4526"
         style="font-style:normal;font-variant:normal;font-weight:bold;font-stretch:normal;font-family:Akashi;-inkscape-font-specification:'Akashi Bold';stroke-width:3.12208343"
         d="m 37.797619,128.42262 v -13.64258 h 3.720703 v 13.64258 z m 0,-18.60351 v 3.7207 h 2.480469 l 1.240234,-3.7207 z" />
      <path
         id="path4528"
         style="font-style:normal;font-variant:normal;font-weight:bold;font-stretch:normal;font-family:Akashi;-inkscape-font-specification:'Akashi Bold';stroke-width:3.12208343"
         d="m 43.998791,128.42262 v -11.16211 q 0,-2.48047 2.480468,-2.48047 h 9.934278 q 2.480468,0 2.480468,2.48047 v 11.16211 h -3.720703 l -0.0124,-9.92187 h -7.441406 v 9.92187 z" />
      <path
         id="path4530"
         style="font-style:normal;font-variant:normal;font-weight:bold;font-stretch:normal;font-family:Akashi;-inkscape-font-specification:'Akashi Bold';stroke-width:3.12208343"
         d="m 65.082775,112.29958 v 2.48046 h 2.480469 l -1.240235,3.70831 h -1.240234 v 6.21357 h 2.480469 v 3.7207 h -3.720703 q -2.480469,0 -2.480469,-2.48047 v -13.64257 z" />
      <path
         id="path4532"
         style="font-style:normal;font-variant:normal;font-weight:bold;font-stretch:normal;font-family:Akashi;-inkscape-font-specification:'Akashi Bold';stroke-width:3.12208343"
         d="m 84.926525,117.26051 q 0,-2.48047 -2.480469,-2.48047 h -9.921875 q -2.480468,0 -2.480468,2.48047 v 8.68164 q 0,2.48047 2.480468,2.48047 h 8.694043 l 1.21543,-3.7207 h -8.669238 v -6.20117 h 7.441406 v 1.24023 H 75.00465 v 3.72071 h 7.441406 q 2.480469,0 2.480469,-2.48047 z" />
      <path
         id="path4534"
         style="font-style:normal;font-variant:normal;font-weight:bold;font-stretch:normal;font-family:Akashi;-inkscape-font-specification:'Akashi Bold';stroke-width:3.12208343"
         d="m 87.406994,128.42262 v -18.60351 h 3.720703 v 18.60351 z" />
      <path
         id="path4536"
         style="font-style:normal;font-variant:normal;font-weight:bold;font-stretch:normal;font-family:Akashi;-inkscape-font-specification:'Akashi Bold';stroke-width:3.12208343"
         d="m 108.49098,117.26051 q 0,-2.48047 -2.48047,-2.48047 h -9.921876 q -2.480468,0 -2.480468,2.48047 v 8.68164 q 0,2.48047 2.480468,2.48047 h 8.694046 l 1.21543,-3.7207 h -8.669241 v -6.20117 h 7.441401 v 1.24023 h -6.201167 v 3.72071 h 7.441407 q 2.48047,0 2.48047,-2.48047 z" />
      <path
         id="path4538"
         style="font-style:normal;font-variant:normal;font-weight:bold;font-stretch:normal;font-family:Akashi;-inkscape-font-specification:'Akashi Bold';stroke-width:3.12208343"
         d="m 114.69215,109.81911 h -3.7207 v 18.60351 h 3.7207 v -4.96093 h 5.32061 l 2.1208,4.96093 h 3.7207 l -2.48047,-6.20117 q -0.79375,-2.25723 -2.91455,-2.45566 l 1.66191,-4.98575 h -3.7207 l -1.64951,4.96094 h -2.05879 z" />
      <path
         id="path4540"
         style="font-style:normal;font-variant:normal;font-weight:bold;font-stretch:normal;font-family:Akashi;-inkscape-font-specification:'Akashi Bold';stroke-width:3.12208343"
         d="m 130.8152,112.29958 v 2.48046 h 2.48047 l -1.24024,3.70831 h -1.24023 v 6.21357 h 2.48047 v 3.7207 h -3.72071 q -2.48047,0 -2.48047,-2.48047 v -13.64257 z" />
      <path
         id="path4542"
         style="font-style:normal;font-variant:normal;font-weight:bold;font-stretch:normal;font-family:Akashi;-inkscape-font-specification:'Akashi Bold';stroke-width:3.12208343"
         d="m 135.77613,128.42262 v -11.16211 q 0,-2.48047 2.48047,-2.48047 h 7.42901 l -1.24024,3.72071 h -4.94853 v 9.92187 z" />
      <path
         id="path4544"
         style="font-style:normal;font-variant:normal;font-weight:bold;font-stretch:normal;font-family:Akashi;-inkscape-font-specification:'Akashi Bold';stroke-width:3.12208343"
         d="m 161.82106,117.26051 v 8.68164 q 0,2.48047 -2.48047,2.48047 h -9.92188 q -2.48047,0 -2.48047,-2.48047 v -8.68164 q 0,-2.48047 2.48047,-2.48047 h 9.92188 q 2.48047,0 2.48047,2.48047 z m -11.16211,1.24024 v 6.20117 h 7.4414 v -6.20117 z" />
      <path
         id="path4546"
         style="font-style:normal;font-variant:normal;font-weight:bold;font-stretch:normal;font-family:Akashi;-inkscape-font-specification:'Akashi Bold';stroke-width:3.12208343"
         d="m 164.30153,128.42262 v -11.16211 q 0,-2.48047 2.48046,-2.48047 h 9.93428 q 2.48047,0 2.48047,2.48047 v 11.16211 h -3.7207 l -0.0124,-9.92187 h -7.4414 v 9.92187 z" />
    </g>
    <g
       id="layer1-3"
       transform="matrix(0.12543529,0,0,0.12543529,3.4608593,95.434366)">
      <g
         id="g1516"
         transform="matrix(0.760717,0,0,0.760717,-87.69143,-134.6371)">
        <g
           style="fill:#0090d2;fill-opacity:1;stroke:none"
           transform="matrix(1.1757567,0,0,1.1757567,-60.403002,-66.898115)"
           id="g2590">
          <path
             id="path1541"
             d="m -54.716599,535.99927 a 69.700523,69.700523 0 0 1 -69.700521,69.70052 69.700523,69.700523 0 0 1 -69.70053,-69.70052 69.700523,69.700523 0 0 1 69.70053,-69.70053 69.700523,69.700523 0 0 1 69.700521,69.70053 z"
             style="opacity:1;fill:#0090d2;fill-opacity:1;fill-rule:evenodd;stroke:none;stroke-width:7.09856653;stroke-linecap:round;stroke-linejoin:miter;stroke-miterlimit:4;stroke-dasharray:none;stroke-dashoffset:0;stroke-opacity:1"
             transform="rotate(-51.933255)" />
        </g>
        <path
           id="path2439"
           d="m 493.0871,536.37969 a 176.06049,182.38951 0 0 1 -182.57,79.20262 176.06049,182.38951 0 0 1 -138.28354,-146.70545 176.06049,182.38951 0 0 1 80.77758,-187.19451 176.06049,182.38951 0 0 1 197.74504,8.909"
           style="opacity:1;fill:none;fill-opacity:1;fill-rule:evenodd;stroke:#000000;stroke-width:8.00823498;stroke-linecap:round;stroke-linejoin:round;stroke-miterlimit:4;stroke-dasharray:none;stroke-dashoffset:0;stroke-opacity:1" />
        <g
           style="stroke:none"
           id="g2578">
          <path
             id="path2331"
             d="m 81.788464,590.36194 a 39.537701,39.537701 0 0 1 -39.537701,39.5377 39.537701,39.537701 0 0 1 -39.5377007,-39.5377 39.537701,39.537701 0 0 1 39.5377007,-39.5377 39.537701,39.537701 0 0 1 39.537701,39.5377 z"
             style="opacity:1;fill:#0090d2;fill-opacity:1;fill-rule:evenodd;stroke:none;stroke-width:4.02666998;stroke-linecap:round;stroke-linejoin:miter;stroke-miterlimit:4;stroke-dasharray:none;stroke-dashoffset:0;stroke-opacity:1"
             transform="rotate(-51.933276)" />
        </g>
      </g>
    </g>
    <flowRoot
       transform="scale(0.26458333)"
       style="color:#000000;font-style:normal;font-variant:normal;font-weight:bold;font-stretch:normal;font-size:96px;line-height:0%;font-family:Akashi;-inkscape-font-specification:'Akashi Bold';text-align:start;text-anchor:start;clip-rule:nonzero;display:inline;overflow:visible;visibility:visible;opacity:1;isolation:auto;mix-blend-mode:normal;color-interpolation:sRGB;color-interpolation-filters:linearRGB;solid-color:#000000;solid-opacity:1;fill:#000000;fill-opacity:1;fill-rule:nonzero;stroke:none;stroke-width:11.80000019;stroke-linecap:round;stroke-linejoin:miter;stroke-miterlimit:4;stroke-dasharray:none;stroke-dashoffset:0;stroke-opacity:1;color-rendering:auto;image-rendering:auto;shape-rendering:auto;text-rendering:auto;enable-background:accumulate"
       id="flowRoot4594"
       xml:space="preserve"><flowRegion
         id="flowRegion4596"><rect
           y="538.23395"
           x="148.57143"
           height="97.278801"
           width="181.59679"
           id="rect4598" /></flowRegion><flowPara
         id="flowPara4600" /></flowRoot>  </g>
</svg>
